<svg width="474" height="505" viewBox="0 0 474 505" fill="none" xmlns="http://www.w3.org/2000/svg">
<g clip-path="url(#clip0_8801_191)">
<line y1="-0.5" x2="605.638" y2="-0.5" transform="matrix(0.903295 0.429021 0.429021 -0.903295 -73.3743 322.168)" stroke="url(#paint0_angular_8801_191)"/>
<line y1="-0.5" x2="605.638" y2="-0.5" transform="matrix(0.903295 0.429021 0.429021 -0.903295 -73.3743 309.292)" stroke="url(#paint1_angular_8801_191)"/>
<line y1="-0.5" x2="605.638" y2="-0.5" transform="matrix(0.903295 0.429021 0.429021 -0.903295 -73.3743 296.416)" stroke="url(#paint2_angular_8801_191)"/>
<line y1="-0.5" x2="605.638" y2="-0.5" transform="matrix(0.903295 0.429021 0.429021 -0.903295 -73.3743 283.539)" stroke="url(#paint3_angular_8801_191)"/>
<line y1="-0.5" x2="605.638" y2="-0.5" transform="matrix(0.903295 0.429021 0.429021 -0.903295 -73.3743 270.663)" stroke="url(#paint4_angular_8801_191)"/>
<line y1="-0.5" x2="605.638" y2="-0.5" transform="matrix(0.903295 0.429021 0.429021 -0.903295 -73.3743 257.787)" stroke="url(#paint5_angular_8801_191)"/>
<line y1="-0.5" x2="605.638" y2="-0.5" transform="matrix(0.903295 0.429021 0.429021 -0.903295 -73.3743 244.91)" stroke="url(#paint6_angular_8801_191)"/>
<line y1="-0.5" x2="605.638" y2="-0.5" transform="matrix(0.903295 0.429021 0.429021 -0.903295 -73.3743 232.034)" stroke="url(#paint7_angular_8801_191)"/>
<line y1="-0.5" x2="605.638" y2="-0.5" transform="matrix(0.903295 0.429021 0.429021 -0.903295 -73.3743 219.157)" stroke="url(#paint8_angular_8801_191)"/>
<line y1="-0.5" x2="605.638" y2="-0.5" transform="matrix(0.903295 0.429021 0.429021 -0.903295 -73.3743 206.281)" stroke="url(#paint9_angular_8801_191)"/>
<line y1="-0.5" x2="605.638" y2="-0.5" transform="matrix(0.903295 0.429021 0.429021 -0.903295 -73.3743 193.404)" stroke="url(#paint10_angular_8801_191)"/>
<line y1="-0.5" x2="605.638" y2="-0.5" transform="matrix(0.903295 0.429021 0.429021 -0.903295 -73.3743 180.528)" stroke="url(#paint11_angular_8801_191)"/>
<line y1="-0.5" x2="605.638" y2="-0.5" transform="matrix(0.903295 0.429021 0.429021 -0.903295 -73.3743 167.651)" stroke="url(#paint12_angular_8801_191)"/>
<line y1="-0.5" x2="605.638" y2="-0.5" transform="matrix(0.903295 0.429021 0.429021 -0.903295 -73.3743 154.775)" stroke="url(#paint13_angular_8801_191)"/>
<line y1="-0.5" x2="605.638" y2="-0.5" transform="matrix(0.903295 0.429021 0.429021 -0.903295 -73.3743 141.899)" stroke="url(#paint14_angular_8801_191)"/>
<line y1="-0.5" x2="605.638" y2="-0.5" transform="matrix(0.903295 0.429021 0.429021 -0.903295 -73.3743 129.022)" stroke="url(#paint15_angular_8801_191)"/>
<line y1="-0.5" x2="605.638" y2="-0.5" transform="matrix(0.903295 0.429021 0.429021 -0.903295 -73.3743 116.146)" stroke="url(#paint16_angular_8801_191)"/>
<line y1="-0.5" x2="605.638" y2="-0.5" transform="matrix(0.903295 0.429021 0.429021 -0.903295 -73.3743 103.27)" stroke="url(#paint17_angular_8801_191)"/>
<line y1="-0.5" x2="605.638" y2="-0.5" transform="matrix(0.903295 0.429021 0.429021 -0.903295 -73.3743 90.3931)" stroke="url(#paint18_angular_8801_191)"/>
<line y1="-0.5" x2="605.638" y2="-0.5" transform="matrix(0.903295 0.429021 0.429021 -0.903295 -73.3743 77.5166)" stroke="url(#paint19_angular_8801_191)"/>
<line y1="-0.5" x2="605.638" y2="-0.5" transform="matrix(0.903295 0.429021 0.429021 -0.903295 -73.3743 64.6406)" stroke="url(#paint20_angular_8801_191)"/>
<line y1="-0.5" x2="605.638" y2="-0.5" transform="matrix(0.903295 0.429021 0.429021 -0.903295 -73.3743 51.7642)" stroke="url(#paint21_angular_8801_191)"/>
<line y1="-0.5" x2="605.638" y2="-0.5" transform="matrix(0.903295 0.429021 0.429021 -0.903295 -73.3743 38.8877)" stroke="url(#paint22_angular_8801_191)"/>
<line y1="-0.5" x2="605.638" y2="-0.5" transform="matrix(0.903295 0.429021 0.429021 -0.903295 -73.3743 26.0112)" stroke="url(#paint23_angular_8801_191)"/>
<line y1="-0.5" x2="605.638" y2="-0.5" transform="matrix(0.903295 0.429021 0.429021 -0.903295 -73.3743 13.1348)" stroke="url(#paint24_angular_8801_191)"/>
<line y1="-0.5" x2="605.638" y2="-0.5" transform="matrix(0.903295 0.429021 0.429021 -0.903295 -73.3743 0.258301)" stroke="url(#paint25_angular_8801_191)"/>
<line y1="-0.5" x2="605.638" y2="-0.5" transform="matrix(0.903295 0.429021 0.429021 -0.903295 -73.3743 -12.6182)" stroke="url(#paint26_angular_8801_191)"/>
<line y1="-0.5" x2="605.638" y2="-0.5" transform="matrix(0.903295 0.429021 0.429021 -0.903295 -73.3743 -25.4946)" stroke="url(#paint27_angular_8801_191)"/>
<line y1="-0.5" x2="605.638" y2="-0.5" transform="matrix(0.903295 0.429021 0.429021 -0.903295 -73.3743 -38.3706)" stroke="url(#paint28_angular_8801_191)"/>
<line y1="-0.5" x2="605.638" y2="-0.5" transform="matrix(0.903295 0.429021 0.429021 -0.903295 -73.3743 -51.2471)" stroke="url(#paint29_angular_8801_191)"/>
<line y1="-0.5" x2="605.638" y2="-0.5" transform="matrix(0.903295 0.429021 0.429021 -0.903295 -73.3743 -64.1235)" stroke="url(#paint30_angular_8801_191)"/>
<line y1="-0.5" x2="605.638" y2="-0.5" transform="matrix(0.903295 0.429021 0.429021 -0.903295 -73.3743 -77)" stroke="url(#paint31_angular_8801_191)"/>
</g>
<defs>
<radialGradient id="paint0_angular_8801_191" cx="0" cy="0" r="1" gradientUnits="userSpaceOnUse" gradientTransform="translate(302.819 0.5) rotate(90) scale(0.5 302.819)">
<stop stop-color="#7ACCFF"/>
<stop offset="0.588542" stop-color="#7ACCFF" stop-opacity="0"/>
</radialGradient>
<radialGradient id="paint1_angular_8801_191" cx="0" cy="0" r="1" gradientUnits="userSpaceOnUse" gradientTransform="translate(302.819 0.5) rotate(90) scale(0.5 302.819)">
<stop stop-color="#7ACCFF"/>
<stop offset="0.588542" stop-color="#7ACCFF" stop-opacity="0"/>
</radialGradient>
<radialGradient id="paint2_angular_8801_191" cx="0" cy="0" r="1" gradientUnits="userSpaceOnUse" gradientTransform="translate(302.819 0.5) rotate(90) scale(0.5 302.819)">
<stop stop-color="#7ACCFF"/>
<stop offset="0.588542" stop-color="#7ACCFF" stop-opacity="0"/>
</radialGradient>
<radialGradient id="paint3_angular_8801_191" cx="0" cy="0" r="1" gradientUnits="userSpaceOnUse" gradientTransform="translate(302.819 0.5) rotate(90) scale(0.5 302.819)">
<stop stop-color="#7ACCFF"/>
<stop offset="0.588542" stop-color="#7ACCFF" stop-opacity="0"/>
</radialGradient>
<radialGradient id="paint4_angular_8801_191" cx="0" cy="0" r="1" gradientUnits="userSpaceOnUse" gradientTransform="translate(302.819 0.5) rotate(90) scale(0.5 302.819)">
<stop stop-color="#7ACCFF"/>
<stop offset="0.588542" stop-color="#7ACCFF" stop-opacity="0"/>
</radialGradient>
<radialGradient id="paint5_angular_8801_191" cx="0" cy="0" r="1" gradientUnits="userSpaceOnUse" gradientTransform="translate(302.819 0.5) rotate(90) scale(0.5 302.819)">
<stop stop-color="#7ACCFF"/>
<stop offset="0.588542" stop-color="#7ACCFF" stop-opacity="0"/>
</radialGradient>
<radialGradient id="paint6_angular_8801_191" cx="0" cy="0" r="1" gradientUnits="userSpaceOnUse" gradientTransform="translate(302.819 0.5) rotate(90) scale(0.5 302.819)">
<stop stop-color="#7ACCFF"/>
<stop offset="0.588542" stop-color="#7ACCFF" stop-opacity="0"/>
</radialGradient>
<radialGradient id="paint7_angular_8801_191" cx="0" cy="0" r="1" gradientUnits="userSpaceOnUse" gradientTransform="translate(302.819 0.5) rotate(90) scale(0.5 302.819)">
<stop stop-color="#7ACCFF"/>
<stop offset="0.588542" stop-color="#7ACCFF" stop-opacity="0"/>
</radialGradient>
<radialGradient id="paint8_angular_8801_191" cx="0" cy="0" r="1" gradientUnits="userSpaceOnUse" gradientTransform="translate(302.819 0.5) rotate(90) scale(0.5 302.819)">
<stop stop-color="#7ACCFF"/>
<stop offset="0.588542" stop-color="#7ACCFF" stop-opacity="0"/>
</radialGradient>
<radialGradient id="paint9_angular_8801_191" cx="0" cy="0" r="1" gradientUnits="userSpaceOnUse" gradientTransform="translate(302.819 0.5) rotate(90) scale(0.5 302.819)">
<stop stop-color="#7ACCFF"/>
<stop offset="0.588542" stop-color="#7ACCFF" stop-opacity="0"/>
</radialGradient>
<radialGradient id="paint10_angular_8801_191" cx="0" cy="0" r="1" gradientUnits="userSpaceOnUse" gradientTransform="translate(302.819 0.5) rotate(90) scale(0.5 302.819)">
<stop stop-color="#7ACCFF"/>
<stop offset="0.588542" stop-color="#7ACCFF" stop-opacity="0"/>
</radialGradient>
<radialGradient id="paint11_angular_8801_191" cx="0" cy="0" r="1" gradientUnits="userSpaceOnUse" gradientTransform="translate(302.819 0.5) rotate(90) scale(0.5 302.819)">
<stop stop-color="#7ACCFF"/>
<stop offset="0.588542" stop-color="#7ACCFF" stop-opacity="0"/>
</radialGradient>
<radialGradient id="paint12_angular_8801_191" cx="0" cy="0" r="1" gradientUnits="userSpaceOnUse" gradientTransform="translate(302.819 0.5) rotate(90) scale(0.5 302.819)">
<stop stop-color="#7ACCFF"/>
<stop offset="0.588542" stop-color="#7ACCFF" stop-opacity="0"/>
</radialGradient>
<radialGradient id="paint13_angular_8801_191" cx="0" cy="0" r="1" gradientUnits="userSpaceOnUse" gradientTransform="translate(302.819 0.5) rotate(90) scale(0.5 302.819)">
<stop stop-color="#7ACCFF"/>
<stop offset="0.588542" stop-color="#7ACCFF" stop-opacity="0"/>
</radialGradient>
<radialGradient id="paint14_angular_8801_191" cx="0" cy="0" r="1" gradientUnits="userSpaceOnUse" gradientTransform="translate(302.819 0.5) rotate(90) scale(0.5 302.819)">
<stop stop-color="#7ACCFF"/>
<stop offset="0.588542" stop-color="#7ACCFF" stop-opacity="0"/>
</radialGradient>
<radialGradient id="paint15_angular_8801_191" cx="0" cy="0" r="1" gradientUnits="userSpaceOnUse" gradientTransform="translate(302.819 0.5) rotate(90) scale(0.5 302.819)">
<stop stop-color="#7ACCFF"/>
<stop offset="0.588542" stop-color="#7ACCFF" stop-opacity="0"/>
</radialGradient>
<radialGradient id="paint16_angular_8801_191" cx="0" cy="0" r="1" gradientUnits="userSpaceOnUse" gradientTransform="translate(302.819 0.5) rotate(90) scale(0.5 302.819)">
<stop stop-color="#7ACCFF"/>
<stop offset="0.588542" stop-color="#7ACCFF" stop-opacity="0"/>
</radialGradient>
<radialGradient id="paint17_angular_8801_191" cx="0" cy="0" r="1" gradientUnits="userSpaceOnUse" gradientTransform="translate(302.819 0.5) rotate(90) scale(0.5 302.819)">
<stop stop-color="#7ACCFF"/>
<stop offset="0.588542" stop-color="#7ACCFF" stop-opacity="0"/>
</radialGradient>
<radialGradient id="paint18_angular_8801_191" cx="0" cy="0" r="1" gradientUnits="userSpaceOnUse" gradientTransform="translate(302.819 0.5) rotate(90) scale(0.5 302.819)">
<stop stop-color="#7ACCFF"/>
<stop offset="0.588542" stop-color="#7ACCFF" stop-opacity="0"/>
</radialGradient>
<radialGradient id="paint19_angular_8801_191" cx="0" cy="0" r="1" gradientUnits="userSpaceOnUse" gradientTransform="translate(302.819 0.5) rotate(90) scale(0.5 302.819)">
<stop stop-color="#7ACCFF"/>
<stop offset="0.588542" stop-color="#7ACCFF" stop-opacity="0"/>
</radialGradient>
<radialGradient id="paint20_angular_8801_191" cx="0" cy="0" r="1" gradientUnits="userSpaceOnUse" gradientTransform="translate(302.819 0.5) rotate(90) scale(0.5 302.819)">
<stop stop-color="#7ACCFF"/>
<stop offset="0.588542" stop-color="#7ACCFF" stop-opacity="0"/>
</radialGradient>
<radialGradient id="paint21_angular_8801_191" cx="0" cy="0" r="1" gradientUnits="userSpaceOnUse" gradientTransform="translate(302.819 0.5) rotate(90) scale(0.5 302.819)">
<stop stop-color="#7ACCFF"/>
<stop offset="0.588542" stop-color="#7ACCFF" stop-opacity="0"/>
</radialGradient>
<radialGradient id="paint22_angular_8801_191" cx="0" cy="0" r="1" gradientUnits="userSpaceOnUse" gradientTransform="translate(302.819 0.5) rotate(90) scale(0.5 302.819)">
<stop stop-color="#7ACCFF"/>
<stop offset="0.588542" stop-color="#7ACCFF" stop-opacity="0"/>
</radialGradient>
<radialGradient id="paint23_angular_8801_191" cx="0" cy="0" r="1" gradientUnits="userSpaceOnUse" gradientTransform="translate(302.819 0.5) rotate(90) scale(0.5 302.819)">
<stop stop-color="#7ACCFF"/>
<stop offset="0.588542" stop-color="#7ACCFF" stop-opacity="0"/>
</radialGradient>
<radialGradient id="paint24_angular_8801_191" cx="0" cy="0" r="1" gradientUnits="userSpaceOnUse" gradientTransform="translate(302.819 0.5) rotate(90) scale(0.5 302.819)">
<stop stop-color="#7ACCFF"/>
<stop offset="0.588542" stop-color="#7ACCFF" stop-opacity="0"/>
</radialGradient>
<radialGradient id="paint25_angular_8801_191" cx="0" cy="0" r="1" gradientUnits="userSpaceOnUse" gradientTransform="translate(302.819 0.5) rotate(90) scale(0.5 302.819)">
<stop stop-color="#7ACCFF"/>
<stop offset="0.588542" stop-color="#7ACCFF" stop-opacity="0"/>
</radialGradient>
<radialGradient id="paint26_angular_8801_191" cx="0" cy="0" r="1" gradientUnits="userSpaceOnUse" gradientTransform="translate(302.819 0.5) rotate(90) scale(0.5 302.819)">
<stop stop-color="#7ACCFF"/>
<stop offset="0.588542" stop-color="#7ACCFF" stop-opacity="0"/>
</radialGradient>
<radialGradient id="paint27_angular_8801_191" cx="0" cy="0" r="1" gradientUnits="userSpaceOnUse" gradientTransform="translate(302.819 0.5) rotate(90) scale(0.5 302.819)">
<stop stop-color="#7ACCFF"/>
<stop offset="0.588542" stop-color="#7ACCFF" stop-opacity="0"/>
</radialGradient>
<radialGradient id="paint28_angular_8801_191" cx="0" cy="0" r="1" gradientUnits="userSpaceOnUse" gradientTransform="translate(302.819 0.5) rotate(90) scale(0.5 302.819)">
<stop stop-color="#7ACCFF"/>
<stop offset="0.588542" stop-color="#7ACCFF" stop-opacity="0"/>
</radialGradient>
<radialGradient id="paint29_angular_8801_191" cx="0" cy="0" r="1" gradientUnits="userSpaceOnUse" gradientTransform="translate(302.819 0.5) rotate(90) scale(0.5 302.819)">
<stop stop-color="#7ACCFF"/>
<stop offset="0.588542" stop-color="#7ACCFF" stop-opacity="0"/>
</radialGradient>
<radialGradient id="paint30_angular_8801_191" cx="0" cy="0" r="1" gradientUnits="userSpaceOnUse" gradientTransform="translate(302.819 0.5) rotate(90) scale(0.5 302.819)">
<stop stop-color="#7ACCFF"/>
<stop offset="0.588542" stop-color="#7ACCFF" stop-opacity="0"/>
</radialGradient>
<radialGradient id="paint31_angular_8801_191" cx="0" cy="0" r="1" gradientUnits="userSpaceOnUse" gradientTransform="translate(302.819 0.5) rotate(90) scale(0.5 302.819)">
<stop stop-color="#7ACCFF"/>
<stop offset="0.588542" stop-color="#7ACCFF" stop-opacity="0"/>
</radialGradient>
<clipPath id="clip0_8801_191">
<rect width="474" height="505" fill="white"/>
</clipPath>
</defs>
</svg>
